<mxfile host="app.diagrams.net" modified="2023-12-12T14:13:11.257Z" agent="Mozilla/5.0 (Windows NT 10.0; Win64; x64; rv:109.0) Gecko/20100101 Firefox/119.0" etag="WfMk7CWJCUC_M1eoqvmC" version="22.1.7" type="github">
  <diagram name="Page-1" id="os6x-s39Smoa50q-Pq-R">
    <mxGraphModel dx="467" dy="397" grid="1" gridSize="10" guides="1" tooltips="1" connect="1" arrows="1" fold="1" page="1" pageScale="1" pageWidth="827" pageHeight="1169" math="0" shadow="0">
      <root>
        <mxCell id="0" />
        <mxCell id="1" parent="0" />
        <mxCell id="ycLpMEuibKkHqSz89Az4-3" value="" style="group" vertex="1" connectable="0" parent="1">
          <mxGeometry x="40" y="90" width="80" height="80" as="geometry" />
        </mxCell>
        <mxCell id="ycLpMEuibKkHqSz89Az4-2" value="" style="ellipse;whiteSpace=wrap;html=1;" vertex="1" parent="ycLpMEuibKkHqSz89Az4-3">
          <mxGeometry width="80" height="80" as="geometry" />
        </mxCell>
        <mxCell id="ycLpMEuibKkHqSz89Az4-1" value="A" style="ellipse;whiteSpace=wrap;html=1;" vertex="1" parent="ycLpMEuibKkHqSz89Az4-3">
          <mxGeometry x="10" y="10" width="60" height="60" as="geometry" />
        </mxCell>
        <mxCell id="ycLpMEuibKkHqSz89Az4-4" value="B" style="text;html=1;strokeColor=none;fillColor=none;align=center;verticalAlign=middle;whiteSpace=wrap;rounded=0;" vertex="1" parent="1">
          <mxGeometry x="50" y="60" width="60" height="30" as="geometry" />
        </mxCell>
        <mxCell id="ycLpMEuibKkHqSz89Az4-5" value="" style="endArrow=none;html=1;rounded=0;exitX=0.908;exitY=0.742;exitDx=0;exitDy=0;exitPerimeter=0;entryX=0.25;entryY=0;entryDx=0;entryDy=0;" edge="1" parent="1" source="ycLpMEuibKkHqSz89Az4-1" target="ycLpMEuibKkHqSz89Az4-6">
          <mxGeometry width="50" height="50" relative="1" as="geometry">
            <mxPoint x="390" y="440" as="sourcePoint" />
            <mxPoint x="170" y="130" as="targetPoint" />
          </mxGeometry>
        </mxCell>
        <mxCell id="ycLpMEuibKkHqSz89Az4-6" value="" style="shape=process;whiteSpace=wrap;html=1;backgroundOutline=1;size=0.5;rotation=-90;" vertex="1" parent="1">
          <mxGeometry x="150" y="115" width="60" height="30" as="geometry" />
        </mxCell>
        <mxCell id="ycLpMEuibKkHqSz89Az4-8" value="" style="endArrow=none;html=1;rounded=0;entryX=0.75;entryY=0;entryDx=0;entryDy=0;exitX=0.963;exitY=0.313;exitDx=0;exitDy=0;exitPerimeter=0;" edge="1" parent="1" source="ycLpMEuibKkHqSz89Az4-2" target="ycLpMEuibKkHqSz89Az4-6">
          <mxGeometry width="50" height="50" relative="1" as="geometry">
            <mxPoint x="390" y="440" as="sourcePoint" />
            <mxPoint x="440" y="390" as="targetPoint" />
          </mxGeometry>
        </mxCell>
        <mxCell id="ycLpMEuibKkHqSz89Az4-9" value="&lt;font style=&quot;font-size: 16px;&quot;&gt;&lt;dfn class=&quot;glossary&quot;&gt;∈&lt;/dfn&gt;&lt;/font&gt;" style="text;html=1;strokeColor=none;fillColor=none;align=center;verticalAlign=middle;whiteSpace=wrap;rounded=0;" vertex="1" parent="1">
          <mxGeometry x="190" y="115" width="60" height="30" as="geometry" />
        </mxCell>
        <mxCell id="ycLpMEuibKkHqSz89Az4-12" value="B" style="text;html=1;strokeColor=none;fillColor=none;align=center;verticalAlign=middle;whiteSpace=wrap;rounded=0;" vertex="1" parent="1">
          <mxGeometry x="200" y="120" width="60" height="30" as="geometry" />
        </mxCell>
        <mxCell id="ycLpMEuibKkHqSz89Az4-13" value="B" style="text;html=1;strokeColor=none;fillColor=none;align=center;verticalAlign=middle;whiteSpace=wrap;rounded=0;" vertex="1" parent="1">
          <mxGeometry x="150" y="170" width="60" height="30" as="geometry" />
        </mxCell>
        <mxCell id="ycLpMEuibKkHqSz89Az4-14" value="&lt;font style=&quot;font-size: 16px;&quot;&gt;&lt;dfn class=&quot;glossary&quot;&gt;∈&lt;/dfn&gt;&lt;/font&gt;" style="text;html=1;strokeColor=none;fillColor=none;align=center;verticalAlign=middle;whiteSpace=wrap;rounded=0;" vertex="1" parent="1">
          <mxGeometry x="140" y="160" width="60" height="30" as="geometry" />
        </mxCell>
        <mxCell id="ycLpMEuibKkHqSz89Az4-16" value="&lt;font style=&quot;font-size: 16px;&quot;&gt;&lt;dfn class=&quot;glossary&quot;&gt;∈&lt;/dfn&gt;&lt;/font&gt;" style="text;html=1;strokeColor=none;fillColor=none;align=center;verticalAlign=middle;whiteSpace=wrap;rounded=0;" vertex="1" parent="1">
          <mxGeometry x="140" y="60" width="60" height="30" as="geometry" />
        </mxCell>
        <mxCell id="ycLpMEuibKkHqSz89Az4-19" value="B" style="text;html=1;strokeColor=none;fillColor=none;align=center;verticalAlign=middle;whiteSpace=wrap;rounded=0;" vertex="1" parent="1">
          <mxGeometry x="150" y="70" width="60" height="30" as="geometry" />
        </mxCell>
        <mxCell id="ycLpMEuibKkHqSz89Az4-20" value="p" style="text;html=1;strokeColor=none;fillColor=none;align=center;verticalAlign=middle;whiteSpace=wrap;rounded=0;" vertex="1" parent="1">
          <mxGeometry x="150" y="50" width="60" height="30" as="geometry" />
        </mxCell>
        <mxCell id="ycLpMEuibKkHqSz89Az4-22" value="e" style="text;html=1;strokeColor=none;fillColor=none;align=center;verticalAlign=middle;whiteSpace=wrap;rounded=0;" vertex="1" parent="1">
          <mxGeometry x="150" y="150" width="60" height="30" as="geometry" />
        </mxCell>
      </root>
    </mxGraphModel>
  </diagram>
</mxfile>
